<svg width="74" height="99" viewBox="0 0 74 99" fill="none" xmlns="http://www.w3.org/2000/svg">
<path d="M41.5 48C47.9567 48 53.5477 45.6349 58.116 40.9685C62.6842 36.303 65 30.5943 65 23.9992C65 17.4064 62.6842 11.697 58.1152 7.02993C53.5463 2.36511 47.956 0 41.5 0C35.0425 0 29.453 2.36511 24.8847 7.03069C20.3165 11.6963 18 17.4057 18 23.9992C18 30.5943 20.3165 36.3037 24.8855 40.9693C29.4545 45.6341 35.0448 48 41.5 48Z" fill="#DCE9FF"/>
<path d="M83.7964 77.3119C83.6605 75.3142 83.3855 73.1351 82.9807 70.834C82.572 68.5156 82.0458 66.324 81.4159 64.3208C80.7653 62.2504 79.8804 60.2058 78.7866 58.2465C77.6513 56.2128 76.3178 54.442 74.8214 52.9848C73.2567 51.4603 71.3409 50.2347 69.1256 49.3406C66.9179 48.4513 64.4714 48.0008 61.8543 48.0008C60.8265 48.0008 59.8325 48.4302 57.9129 49.7028C56.7315 50.4873 55.3496 51.3946 53.8072 52.3982C52.4883 53.2539 50.7016 54.0556 48.4947 54.7814C46.3416 55.4909 44.1554 55.8507 41.9977 55.8507C39.84 55.8507 37.6546 55.4909 35.4992 54.7814C33.2946 54.0564 31.5079 53.2546 30.1905 52.3989C28.6627 51.4048 27.28 50.4975 26.0809 49.702C24.1636 48.4294 23.1689 48 22.1411 48C19.5232 48 17.0775 48.4513 14.8706 49.3414C12.6568 50.2339 10.7402 51.4595 9.17399 52.9856C7.6784 54.4435 6.34413 56.2136 5.21034 58.2465C4.11727 60.2058 3.23236 62.2496 2.58098 64.3216C1.95186 66.3247 1.42568 68.5156 1.01703 70.834C0.612213 73.132 0.337217 75.3119 0.201255 77.3143C0.067597 79.2759 0 81.3119 0 83.3683C0 88.7199 1.67072 93.0523 4.96531 96.2475C8.21918 99.4005 12.5246 101 17.7603 101H66.2397C71.4754 101 75.7793 99.4012 79.0339 96.2475C82.3293 93.0547 84 88.7215 84 83.3675C83.9992 81.3018 83.9309 79.2642 83.7964 77.3119Z" fill="#DCE9FF"/>
</svg>
