<svg width="13" height="15" viewBox="0 0 13 15" fill="none" xmlns="http://www.w3.org/2000/svg">
<path d="M6.5 7C7.46164 7 8.29435 6.65509 8.97472 5.97458C9.6551 5.29418 10 4.46167 10 3.49989C10 2.53844 9.6551 1.70582 8.97461 1.0252C8.29412 0.344911 7.46153 0 6.5 0C5.53825 0 4.70577 0.344911 4.02539 1.02531C3.34501 1.70571 3 2.53833 3 3.49989C3 4.46167 3.34501 5.29429 4.0255 5.97469C4.70599 6.65498 5.53858 7 6.5 7Z" fill="#323C47"/>
<path d="M12.9685 11.4244C12.9475 11.1229 12.9049 10.794 12.8422 10.4466C12.779 10.0967 12.6976 9.76588 12.6001 9.46352C12.4994 9.151 12.3624 8.84238 12.1932 8.54664C12.0175 8.23967 11.8111 7.97237 11.5795 7.75242C11.3373 7.52231 11.0409 7.33731 10.698 7.20236C10.3563 7.06812 9.97771 7.00012 9.57269 7.00012C9.41363 7.00012 9.2598 7.06494 8.96272 7.25702C8.77988 7.37544 8.56602 7.5124 8.3273 7.66387C8.12319 7.79303 7.84667 7.91405 7.50513 8.02361C7.17191 8.1307 6.83358 8.18501 6.49964 8.18501C6.16571 8.18501 5.8275 8.1307 5.49392 8.02361C5.15273 7.91417 4.87622 7.79315 4.67234 7.66399C4.43589 7.51393 4.2219 7.37698 4.03633 7.25691C3.73961 7.06482 3.58566 7 3.4266 7C3.02145 7 2.64294 7.06812 2.3014 7.20248C1.95879 7.33719 1.66218 7.5222 1.41978 7.75254C1.18832 7.97261 0.98183 8.23979 0.806363 8.54664C0.637197 8.84238 0.500247 9.15089 0.399437 9.46364C0.302074 9.766 0.220641 10.0967 0.157397 10.4466C0.0947473 10.7935 0.0521883 11.1226 0.0311466 11.4248C0.0104614 11.7209 0 12.0282 0 12.3386C0 13.1464 0.258564 13.8004 0.76844 14.2826C1.27202 14.7586 1.93834 15 2.74862 15H10.2514C11.0617 15 11.7277 14.7587 12.2314 14.2826C12.7414 13.8007 13 13.1466 13 12.3385C12.9999 12.0267 12.9893 11.7191 12.9685 11.4244Z" fill="#323C47"/>
</svg>