<svg width="111" height="93" viewBox="0 0 111 93" fill="none" xmlns="http://www.w3.org/2000/svg">
<path d="M130.247 28.7766C129.607 27.9926 128.651 27.535 127.648 27.535H114.898C111.752 19.211 107.653 11.0552 102.994 7.97662C86.8775 -2.65887 44.1283 -2.65887 28.0114 7.97662C23.3491 11.0586 19.2671 19.2245 16.1041 27.535H3.35477C2.3418 27.535 1.38921 27.9926 0.755269 28.7766C0.117973 29.5572 -0.136946 30.5901 0.0710139 31.5826L1.95942 40.7613C2.28143 42.3258 3.65665 43.4428 5.24318 43.4428H9.02C5.37399 47.6621 3.60633 52.9747 3.58285 58.2908C3.55938 64.8585 6.04483 70.7937 10.5898 74.9927C10.6401 75.0364 10.6904 75.0667 10.7374 75.1104V87.9531C10.7374 90.7356 12.9914 93 15.7686 93H27.5284C30.3057 93 32.5597 90.7356 32.5597 87.9531V82.7918H98.4395V87.9531C98.4395 90.7356 100.693 93 103.471 93H115.231C118.001 93 120.262 90.7356 120.262 87.9531V75.3628C125.085 70.9316 127.39 64.835 127.42 58.7484C127.44 53.2506 125.592 47.7428 121.731 43.4361H125.759C127.353 43.4361 128.728 42.3191 129.043 40.7512L130.935 31.5759C131.129 30.5901 130.885 29.5639 130.247 28.7766ZM33.5358 16.4049C46.3824 7.92279 84.6168 7.92279 97.4567 16.4049C99.9522 18.0469 103.162 24.6852 106.104 32.8141H24.8954C27.8303 24.6886 31.0403 18.0536 33.5358 16.4049ZM18.4889 59.5559C18.4889 54.0716 22.9231 49.6303 28.3871 49.6303C33.8578 49.6303 38.2853 54.0716 38.2853 59.5559C38.2853 65.0402 33.8578 69.4848 28.3871 69.4848C22.9231 69.4848 18.4889 65.0402 18.4889 59.5559ZM102.743 69.4848C97.2789 69.4848 92.8447 65.0402 92.8447 59.5559C92.8447 54.0716 97.2789 49.6303 102.743 49.6303C108.214 49.6303 112.641 54.0716 112.641 59.5559C112.641 65.0402 108.207 69.4848 102.743 69.4848Z" fill="#D9EBD9"/>
</svg>
