<svg width="90" height="92" viewBox="0 0 90 92" fill="none" xmlns="http://www.w3.org/2000/svg">
<path d="M19.4048 79.7908C14.7503 79.7903 10.977 83.5632 10.9766 88.2177C10.9761 92.8722 14.7489 96.6455 19.4035 96.646C24.058 96.6464 27.8313 92.8736 27.8317 88.2191C27.8317 88.2188 27.8317 88.2184 27.8317 88.2181C27.8264 83.5664 24.0568 79.7966 19.4048 79.7908Z" fill="#D9E1FE"/>
<path d="M81.5819 79.7908C76.9274 79.7908 73.1543 83.5638 73.1543 88.2184C73.1543 92.8729 76.9274 96.646 81.5819 96.646C86.2364 96.646 90.0095 92.8729 90.0095 88.2184V88.2181C90.0042 83.5662 86.2341 79.7961 81.5819 79.7908Z" fill="#D9E1FE"/>
<path d="M98.8463 68.9022L89.3189 64.5848C88.988 64.433 88.709 64.1878 88.5163 63.879L80.3328 50.8207C78.8212 48.3913 76.1593 46.918 73.2979 46.9273H40.0417C37.4511 46.934 35.0103 48.1421 33.4339 50.1979L22.8994 64.0326C22.6496 64.3553 22.3009 64.5873 21.9067 64.6931L4.27603 69.5051C1.76728 70.1895 0.019896 72.459 0 75.0594V81.4923C0 84.6705 2.64918 87.1821 5.82699 87.1821H7.31688C7.84459 80.506 13.6843 75.5218 20.3604 76.0495C26.3033 76.5194 31.023 81.2392 31.4929 87.1821H69.4952C70.0213 80.506 75.8599 75.5207 82.5359 76.0468C88.4809 76.5152 93.2028 81.2371 93.6712 87.1821H96.4303C99.6072 87.1821 102.256 84.6705 102.256 81.493V74.1504C102.24 71.8857 100.909 69.8371 98.8463 68.9022Z" fill="#D9E1FE"/>
<path d="M24.6357 32.1747C31.3062 32.1747 36.6966 28.6508 39.0124 22.867H63.9392C66.3436 27.0313 71.2375 30.8916 77.4731 30.8911C77.5221 30.8911 77.5721 30.8551 77.6214 30.8546C85.1074 30.8546 90.6413 26.5767 92.4252 19.4414C92.676 18.4462 92.0724 17.4361 91.0771 17.1853C90.8842 17.1367 90.6845 17.1194 90.4863 17.134L82.1364 17.7817C81.2235 16.0908 81.2223 14.054 82.1336 12.3621L90.5316 13.0601C91.5502 13.1448 92.4446 12.3878 92.5295 11.3692C92.5483 11.1441 92.5256 10.9174 92.4627 10.7004C90.5571 4.12264 84.8976 0.0661663 77.6769 4.20557e-07C71.0073 -0.00138768 65.6169 3.43345 63.3011 9.44854H38.2608C35.4455 4.35885 30.0671 1.22685 24.5237 1.22685C16.9773 1.22685 11.4819 5.50681 9.82309 12.7335C9.69145 13.3019 9.84113 13.899 10.2252 14.3381C10.6101 14.7828 11.1846 15.0162 11.7706 14.9662L20.1207 14.3127C21.0333 16.0027 21.034 18.0383 20.123 19.729L11.725 19.028C10.7064 18.9433 9.81198 19.7003 9.72708 20.7189C9.70834 20.944 9.73101 21.1708 9.79394 21.3878C11.7086 27.9972 17.3956 32.1747 24.6357 32.1747Z" fill="#D9E1FE"/>
</svg>
