<svg width="30" height="19" viewBox="0 0 30 19" fill="none" xmlns="http://www.w3.org/2000/svg">
<path d="M27.93 2.44385H2.06836V16.9264H27.93V2.44385ZM3.10282 3.47831H4.13729V4.51278H3.10282V3.47831ZM4.13729 15.8919H3.10282V14.8574H4.13729V15.8919ZM6.20622 12.2713C7.06162 12.2713 7.75792 11.575 7.75792 10.7196H8.79238C8.79238 12.1455 7.63215 13.3057 6.20622 13.3057C4.7803 13.3057 3.62006 12.1455 3.62006 10.7196V8.65064C3.62006 7.22471 4.7803 6.06448 6.20622 6.06448C7.63215 6.06448 8.79238 7.22471 8.79238 8.65064H7.75792C7.75792 7.79524 7.06162 7.09894 6.20622 7.09894C5.35082 7.09894 4.65452 7.79524 4.65452 8.65064V10.7196C4.65452 11.575 5.35082 12.2713 6.20622 12.2713ZM9.82685 9.16787H12.9302V10.2023H9.82685V9.16787ZM17.0681 8.65064C17.0681 9.04942 16.9125 9.40982 16.6648 9.6851C16.913 9.96039 17.0681 10.3208 17.0681 10.7196V11.754C17.0681 12.6094 16.3718 13.3057 15.5164 13.3057H12.9302V12.2713H15.5164C15.8018 12.2713 16.0336 12.0389 16.0336 11.754V10.7196C16.0336 10.4347 15.8018 10.2023 15.5164 10.2023H13.9647V9.16787H15.5164C15.8018 9.16787 16.0336 8.93552 16.0336 8.65064V7.61617C16.0336 7.33129 15.8018 7.09894 15.5164 7.09894H12.9302V6.06448H15.5164C16.3718 6.06448 17.0681 6.76077 17.0681 7.61617V8.65064ZM22.2404 12.2713V13.3057H18.1026V12.0571L20.6261 9.53357C21.0001 9.15954 21.206 8.662 21.206 8.13341C21.206 7.56289 20.742 7.09894 20.1715 7.09894C19.601 7.09894 19.137 7.56289 19.137 8.13341V8.65064H18.1026V8.13341C18.1026 6.99236 19.0305 6.06448 20.1715 6.06448C21.3125 6.06448 22.2404 6.99236 22.2404 8.13341C22.2404 8.9388 21.927 9.69596 21.3575 10.265L19.3512 12.2713H22.2404ZM23.2749 12.2713H24.3094V7.09894H23.2749V6.06448H25.3438V12.2713H26.3783V13.3057H23.2749V12.2713ZM26.8955 15.8919H25.8611V14.8574H26.8955V15.8919ZM26.8955 4.51278H25.8611V3.47831H26.8955V4.51278Z" fill="#323C47"/>
<path d="M29.9995 0.375H0V18.9954H30L29.9995 0.375ZM28.965 17.9609H1.03447V1.40947H28.965V17.9609Z" fill="#323C47"/>
</svg>