<svg width="20" height="14" viewBox="0 0 20 14" fill="none" xmlns="http://www.w3.org/2000/svg">
<path d="M19.8851 4.33196C19.7873 4.21394 19.6413 4.14506 19.4882 4.14506H17.5418C17.0614 2.89198 16.4356 1.66423 15.7243 1.20078C13.2637 -0.400261 6.73715 -0.400261 4.27656 1.20078C3.56475 1.66473 2.94154 2.89401 2.45864 4.14506H0.512179C0.357527 4.14506 0.212093 4.21394 0.115308 4.33196C0.0180111 4.44946 -0.0209078 4.60496 0.0108418 4.75438L0.299149 6.1361C0.34831 6.37163 0.558267 6.53978 0.800486 6.53978H1.3771C0.820457 7.17493 0.550585 7.97469 0.547001 8.77496C0.543416 9.76365 0.922875 10.6571 1.61676 11.2892C1.62444 11.2958 1.63212 11.3004 1.63929 11.3069V13.2403C1.63929 13.6591 1.98342 14 2.40743 14H4.20282C4.62683 14 4.97095 13.6591 4.97095 13.2403V12.4633H15.0289V13.2403C15.0289 13.6591 15.373 14 15.7971 14H17.5925C18.0154 14 18.3606 13.6591 18.3606 13.2403V11.3449C19.097 10.6779 19.4488 9.7601 19.4534 8.84384C19.4565 8.01623 19.1743 7.18709 18.5849 6.53877H19.1999C19.4431 6.53877 19.6531 6.37061 19.7012 6.13458L19.9901 4.75336C20.0198 4.60496 19.9824 4.45048 19.8851 4.33196ZM5.11997 2.46956C7.08128 1.19268 12.9186 1.19268 14.8789 2.46956C15.2599 2.71673 15.7499 3.71605 16.1991 4.93975H3.80082C4.2489 3.71656 4.73898 2.71774 5.11997 2.46956ZM2.82273 8.9654C2.82273 8.13981 3.49972 7.47123 4.33391 7.47123C5.16913 7.47123 5.84509 8.13981 5.84509 8.9654C5.84509 9.791 5.16913 10.4601 4.33391 10.4601C3.49972 10.4601 2.82273 9.791 2.82273 8.9654ZM15.6859 10.4601C14.8517 10.4601 14.1748 9.791 14.1748 8.9654C14.1748 8.13981 14.8517 7.47123 15.6859 7.47123C16.5212 7.47123 17.1971 8.13981 17.1971 8.9654C17.1971 9.791 16.5201 10.4601 15.6859 10.4601Z" fill="#323C47"/>
</svg>