<svg width="82" height="98" viewBox="0 0 82 98" fill="none" xmlns="http://www.w3.org/2000/svg">
<path d="M41.5 49C48.2315 49 54.0604 46.5856 58.8231 41.8221C63.5857 37.0593 66 31.2317 66 24.4992C66 17.7691 63.5857 11.9407 58.8223 7.17639C54.0589 2.41438 48.2307 0 41.5 0C34.7677 0 28.9404 2.41438 24.1777 7.17717C19.4151 11.94 17 17.7683 17 24.4992C17 31.2317 19.4151 37.06 24.1785 41.8228C28.9419 46.5848 34.7701 49 41.5 49Z" fill="#fbe1d9"/>
<path d="M84.794 78.3119C84.6564 76.3142 84.3782 74.1351 83.9685 71.834C83.555 69.5156 83.0226 67.324 82.3852 65.3208C81.7268 63.2504 80.8314 61.2058 79.7245 59.2465C78.5757 57.2128 77.2263 55.442 75.7121 53.9848C74.1288 52.4603 72.1902 51.2347 69.9485 50.3406C67.7146 49.4513 65.2389 49.0008 62.5907 49.0008C61.5507 49.0008 60.5448 49.4302 58.6024 50.7028C57.4069 51.4873 56.0086 52.3946 54.4478 53.3982C53.1131 54.2539 51.3052 55.0556 49.072 55.7814C46.8933 56.4909 44.6811 56.8507 42.4977 56.8507C40.3143 56.8507 38.1029 56.4909 35.9218 55.7814C33.6909 55.0564 31.883 54.2546 30.5499 53.3989C29.0039 52.4048 27.6048 51.4975 26.3914 50.702C24.4513 49.4294 23.4447 49 22.4047 49C19.7557 49 17.2808 49.4513 15.0476 50.3414C12.8074 51.2339 10.8681 52.4595 9.2832 53.9856C7.76981 55.4435 6.41966 57.2136 5.27237 59.2465C4.16629 61.2058 3.27085 63.2496 2.6117 65.3216C1.9751 67.3247 1.44265 69.5156 1.02913 71.834C0.619502 74.132 0.341231 76.3119 0.203651 78.3143C0.0684017 80.2759 0 82.3119 0 84.3683C0 89.7199 1.69061 94.0523 5.02442 97.2475C8.31703 100.4 12.6737 102 17.9718 102H67.0282C72.3263 102 76.6814 100.401 79.9748 97.2475C83.3094 94.0547 85 89.7215 85 84.3675C84.9992 82.3018 84.93 80.2642 84.794 78.3119Z" fill="#fbe1d9"/>
</svg>